<?xml version="1.0" encoding="UTF-8" standalone="yes"?>
<!DOCTYPE svg PUBLIC "-//W3C//DTD SVG 1.0//EN" "http://www.w3.org/TR/2001/REC-SVG-20010904/DTD/svg10.dtd">
<svg height="2060" width="1280" xmlns="http://www.w3.org/2000/svg" xmlns:svg="http://www.w3.org/2000/svg" xmlns:xlink="http://www.w3.org/1999/xlink">
	<rect fill="#FFFFFF" height="4120" width="2560" x="0" y="0" />
	<text fill="#000000" font-family="Times-Bold" font-size="20" font-style="italic" x="1110" xml:space="preserve" y="48.32">1HL_10A
	</text>
	<text fill="#000000" font-family="Times-Bold" font-size="20" font-style="italic" x="1111" xml:space="preserve" y="69.32">1HL_21A
	</text>
	<text fill="#000000" font-family="Times-Bold" font-size="20" font-style="italic" x="1082" xml:space="preserve" y="90.32">1HL_33A
	</text>
	<text fill="#000000" font-family="Times-Bold" font-size="20" font-style="italic" x="1177" xml:space="preserve" y="111.32">1HL_11A
	</text>
	<text fill="#000000" font-family="Times-Bold" font-size="20" font-style="italic" x="1162" xml:space="preserve" y="131.32">1HL_17A
	</text>
	<text fill="#000000" font-family="Times-Bold" font-size="20" font-style="italic" x="1147" xml:space="preserve" y="152.32">1HL_23A
	</text>
	<text fill="#000000" font-family="Times-Bold" font-size="20" font-style="italic" x="1136" xml:space="preserve" y="173.32">1HL_34A
	</text>
	<text fill="#000000" font-family="Times-Bold" font-size="20" font-style="italic" x="1104" xml:space="preserve" y="194.32">1HL_22A
	</text>
	<text fill="#000000" font-family="Times-Bold" font-size="20" font-style="italic" x="1129" xml:space="preserve" y="214.32">1HL_8A
	</text>
	<text fill="#000000" font-family="Times-Bold" font-size="20" font-style="italic" x="1130" xml:space="preserve" y="235.32">1HL_7A
	</text>
	<text fill="#000000" font-family="Times-Bold" font-size="20" font-style="italic" x="1142" xml:space="preserve" y="256.32">1HL_29A
	</text>
	<text fill="#000000" font-family="Times-Bold" font-size="20" font-style="italic" x="1064" xml:space="preserve" y="277.32">1HL_15A
	</text>
	<text fill="#000000" font-family="Times-Bold" font-size="20" font-style="italic" x="1117" xml:space="preserve" y="297.32">1HL_35A
	</text>
	<text fill="#000000" font-family="Times-Bold" font-size="20" font-style="italic" x="1164" xml:space="preserve" y="318.32">1HL_19A
	</text>
	<text fill="#000000" font-family="Times-Bold" font-size="20" font-style="italic" x="1176" xml:space="preserve" y="339.32">1HL_27A
	</text>
	<text fill="#000000" font-family="Times-Bold" font-size="20" font-style="italic" x="1066" xml:space="preserve" y="360.32">1HL_16A
	</text>
	<text fill="#000000" font-family="Times-Bold" font-size="20" font-style="italic" x="1145" xml:space="preserve" y="380.32">1HL_28A
	</text>
	<text fill="#000000" font-family="Times-Bold" font-size="20" font-style="italic" x="1101" xml:space="preserve" y="401.32">1HL_31A
	</text>
	<text fill="#000000" font-family="Times-Bold" font-size="20" font-style="italic" x="1125" xml:space="preserve" y="422.32">1HL_25A
	</text>
	<text fill="#000000" font-family="Times-Bold" font-size="20" font-style="italic" x="1093" xml:space="preserve" y="443.32">1HL_6A
	</text>
	<text fill="#000000" font-family="Times-Bold" font-size="20" font-style="italic" x="1091" xml:space="preserve" y="463.32">1HL_1A
	</text>
	<text fill="#000000" font-family="Times-Bold" font-size="20" font-style="italic" x="1132" xml:space="preserve" y="484.32">1HL_26A
	</text>
	<text fill="#000000" font-family="Times-Bold" font-size="20" font-style="italic" x="1094" xml:space="preserve" y="505.32">1HL_9A
	</text>
	<text fill="#000000" font-family="Times-Bold" font-size="20" font-style="italic" x="1056" xml:space="preserve" y="526.32">1HL_3A
	</text>
	<text fill="#000000" font-family="Times-Bold" font-size="20" font-style="italic" x="1031" xml:space="preserve" y="546.32">1NF_29A
	</text>
	<text fill="#000000" font-family="Times-Bold" font-size="20" font-style="italic" x="955" xml:space="preserve" y="567.32">1HL_12A
	</text>
	<text fill="#000000" font-family="Times-Bold" font-size="20" font-style="italic" x="995" xml:space="preserve" y="588.32">1SN_20A
	</text>
	<text fill="#000000" font-family="Times-Bold" font-size="20" font-style="italic" x="1022" xml:space="preserve" y="609.32">1NF_5A
	</text>
	<text fill="#000000" font-family="Times-Bold" font-size="20" font-style="italic" x="1095" xml:space="preserve" y="629.32">1SN_13A
	</text>
	<text fill="#000000" font-family="Times-Bold" font-size="20" font-style="italic" x="1139" xml:space="preserve" y="650.32">1SN_31A
	</text>
	<text fill="#000000" font-family="Times-Bold" font-size="20" font-style="italic" x="1120" xml:space="preserve" y="671.32">1SN_1A
	</text>
	<text fill="#000000" font-family="Times-Bold" font-size="20" font-style="italic" x="1057" xml:space="preserve" y="692.32">1SN_27A
	</text>
	<text fill="#000000" font-family="Times-Bold" font-size="20" font-style="italic" x="1071" xml:space="preserve" y="712.32">1SN_2A
	</text>
	<text fill="#000000" font-family="Times-Bold" font-size="20" font-style="italic" x="1128" xml:space="preserve" y="733.32">1SN_22A
	</text>
	<text fill="#000000" font-family="Times-Bold" font-size="20" font-style="italic" x="1068" xml:space="preserve" y="754.32">1SN_32A
	</text>
	<text fill="#000000" font-family="Times-Bold" font-size="20" font-style="italic" x="1061" xml:space="preserve" y="775.32">1SN_7A
	</text>
	<text fill="#000000" font-family="Times-Bold" font-size="20" font-style="italic" x="1104" xml:space="preserve" y="795.32">1SN_14A
	</text>
	<text fill="#000000" font-family="Times-Bold" font-size="20" font-style="italic" x="1110" xml:space="preserve" y="816.32">1SN_28A
	</text>
	<text fill="#000000" font-family="Times-Bold" font-size="20" font-style="italic" x="1003" xml:space="preserve" y="837.32">1HL_20A
	</text>
	<text fill="#000000" font-family="Times-Bold" font-size="20" font-style="italic" x="1027" xml:space="preserve" y="858.32">1SN_3A
	</text>
	<text fill="#000000" font-family="Times-Bold" font-size="20" font-style="italic" x="1021" xml:space="preserve" y="878.32">1NF_15A
	</text>
	<text fill="#000000" font-family="Times-Bold" font-size="20" font-style="italic" x="1009" xml:space="preserve" y="899.32">1NF_19A
	</text>
	<text fill="#000000" font-family="Times-Bold" font-size="20" font-style="italic" x="1002" xml:space="preserve" y="920.32">1HL_13A
	</text>
	<text fill="#000000" font-family="Times-Bold" font-size="20" font-style="italic" x="1008" xml:space="preserve" y="941.32">1HL_14A
	</text>
	<text fill="#000000" font-family="Times-Bold" font-size="20" font-style="italic" x="1008" xml:space="preserve" y="961.32">1HL_2A
	</text>
	<text fill="#000000" font-family="Times-Bold" font-size="20" font-style="italic" x="1018" xml:space="preserve" y="982.32">1NF_23A
	</text>
	<text fill="#000000" font-family="Times-Bold" font-size="20" font-style="italic" x="1016" xml:space="preserve" y="1003.32">1HL_24A
	</text>
	<text fill="#000000" font-family="Times-Bold" font-size="20" font-style="italic" x="988" xml:space="preserve" y="1024.32">1HL_4A
	</text>
	<text fill="#000000" font-family="Times-Bold" font-size="20" font-style="italic" x="1048" xml:space="preserve" y="1044.32">1NF_8A
	</text>
	<text fill="#000000" font-family="Times-Bold" font-size="20" font-style="italic" x="1023" xml:space="preserve" y="1065.32">1SN_8A
	</text>
	<text fill="#000000" font-family="Times-Bold" font-size="20" font-style="italic" x="978" xml:space="preserve" y="1086.32">1NF_2A
	</text>
	<text fill="#000000" font-family="Times-Bold" font-size="20" font-style="italic" x="1017" xml:space="preserve" y="1107.32">1SN_17A
	</text>
	<text fill="#000000" font-family="Times-Bold" font-size="20" font-style="italic" x="1001" xml:space="preserve" y="1127.32">1SN_11A
	</text>
	<text fill="#000000" font-family="Times-Bold" font-size="20" font-style="italic" x="1056" xml:space="preserve" y="1148.32">1SN_6A
	</text>
	<text fill="#000000" font-family="Times-Bold" font-size="20" font-style="italic" x="993" xml:space="preserve" y="1169.32">1SN_24A
	</text>
	<text fill="#000000" font-family="Times-Bold" font-size="20" font-style="italic" x="1005" xml:space="preserve" y="1190.32">1SN_12A
	</text>
	<text fill="#000000" font-family="Times-Bold" font-size="20" font-style="italic" x="1047" xml:space="preserve" y="1210.32">1SN_23A
	</text>
	<text fill="#000000" font-family="Times-Bold" font-size="20" font-style="italic" x="993" xml:space="preserve" y="1231.32">1HL_5A
	</text>
	<text fill="#000000" font-family="Times-Bold" font-size="20" font-style="italic" x="1014" xml:space="preserve" y="1252.32">1NF_9A
	</text>
	<text fill="#000000" font-family="Times-Bold" font-size="20" font-style="italic" x="1019" xml:space="preserve" y="1273.32">1NF_12A
	</text>
	<text fill="#000000" font-family="Times-Bold" font-size="20" font-style="italic" x="1031" xml:space="preserve" y="1293.32">1NF_17A
	</text>
	<text fill="#000000" font-family="Times-Bold" font-size="20" font-style="italic" x="1018" xml:space="preserve" y="1314.32">1SN_10A
	</text>
	<text fill="#000000" font-family="Times-Bold" font-size="20" font-style="italic" x="1091" xml:space="preserve" y="1335.32">1SN_21A
	</text>
	<text fill="#000000" font-family="Times-Bold" font-size="20" font-style="italic" x="1008" xml:space="preserve" y="1356.32">1SN_25A
	</text>
	<text fill="#000000" font-family="Times-Bold" font-size="20" font-style="italic" x="1030" xml:space="preserve" y="1376.32">1SN_26A
	</text>
	<text fill="#000000" font-family="Times-Bold" font-size="20" font-style="italic" x="966" xml:space="preserve" y="1397.32">1SN_16A
	</text>
	<text fill="#000000" font-family="Times-Bold" font-size="20" font-style="italic" x="1051" xml:space="preserve" y="1418.32">1SN_19A
	</text>
	<text fill="#000000" font-family="Times-Bold" font-size="20" font-style="italic" x="1064" xml:space="preserve" y="1439.32">1SN_18A
	</text>
	<text fill="#000000" font-family="Times-Bold" font-size="20" font-style="italic" x="1062" xml:space="preserve" y="1459.32">1SN_29A
	</text>
	<text fill="#000000" font-family="Times-Bold" font-size="20" font-style="italic" x="1046" xml:space="preserve" y="1480.32">1SN_4A
	</text>
	<text fill="#000000" font-family="Times-Bold" font-size="20" font-style="italic" x="1047" xml:space="preserve" y="1501.32">1SN_9A
	</text>
	<text fill="#000000" font-family="Times-Bold" font-size="20" font-style="italic" x="1037" xml:space="preserve" y="1522.32">1SN_5A
	</text>
	<text fill="#000000" font-family="Times-Bold" font-size="20" font-style="italic" x="977" xml:space="preserve" y="1542.32">1SN_15A
	</text>
	<text fill="#000000" font-family="Times-Bold" font-size="20" font-style="italic" x="1088" xml:space="preserve" y="1563.32">1SN_30A
	</text>
	<text fill="#000000" font-family="Times-Bold" font-size="20" font-style="italic" x="1117" xml:space="preserve" y="1584.32">1NF_11A
	</text>
	<text fill="#000000" font-family="Times-Bold" font-size="20" font-style="italic" x="1004" xml:space="preserve" y="1605.32">1NF_14A
	</text>
	<text fill="#000000" font-family="Times-Bold" font-size="20" font-style="italic" x="986" xml:space="preserve" y="1625.32">1NF_22A
	</text>
	<text fill="#000000" font-family="Times-Bold" font-size="20" font-style="italic" x="1061" xml:space="preserve" y="1646.32">1NF_24A
	</text>
	<text fill="#000000" font-family="Times-Bold" font-size="20" font-style="italic" x="1064" xml:space="preserve" y="1667.32">1NF_10A
	</text>
	<text fill="#000000" font-family="Times-Bold" font-size="20" font-style="italic" x="1100" xml:space="preserve" y="1688.32">1NF_33A
	</text>
	<text fill="#000000" font-family="Times-Bold" font-size="20" font-style="italic" x="1118" xml:space="preserve" y="1708.32">1NF_13A
	</text>
	<text fill="#000000" font-family="Times-Bold" font-size="20" font-style="italic" x="1093" xml:space="preserve" y="1729.32">1NF_1A
	</text>
	<text fill="#000000" font-family="Times-Bold" font-size="20" font-style="italic" x="1129" xml:space="preserve" y="1750.32">1NF_32A
	</text>
	<text fill="#000000" font-family="Times-Bold" font-size="20" font-style="italic" x="1041" xml:space="preserve" y="1771.32">1NF_6A
	</text>
	<text fill="#000000" font-family="Times-Bold" font-size="20" font-style="italic" x="1102" xml:space="preserve" y="1791.32">1NF_4A
	</text>
	<text fill="#000000" font-family="Times-Bold" font-size="20" font-style="italic" x="1097" xml:space="preserve" y="1812.32">1NF_16A
	</text>
	<text fill="#000000" font-family="Times-Bold" font-size="20" font-style="italic" x="1050" xml:space="preserve" y="1833.32">1NF_28A
	</text>
	<text fill="#000000" font-family="Times-Bold" font-size="20" font-style="italic" x="1089" xml:space="preserve" y="1854.32">1NF_7A
	</text>
	<text fill="#000000" font-family="Times-Bold" font-size="20" font-style="italic" x="983" xml:space="preserve" y="1874.32">1NF_18A
	</text>
	<text fill="#000000" font-family="Times-Bold" font-size="20" font-style="italic" x="1030" xml:space="preserve" y="1895.32">1NF_27A
	</text>
	<text fill="#000000" font-family="Times-Bold" font-size="20" font-style="italic" x="1085" xml:space="preserve" y="1916.32">1NF_31A
	</text>
	<text fill="#000000" font-family="Times-Bold" font-size="20" font-style="italic" x="1001" xml:space="preserve" y="1937.32">1NF_20A
	</text>
	<text fill="#000000" font-family="Times-Bold" font-size="20" font-style="italic" x="994" xml:space="preserve" y="1957.32">1NF_30A
	</text>
	<text fill="#000000" font-family="Times-Bold" font-size="20" font-style="italic" x="1118" xml:space="preserve" y="1978.32">1NF_21A
	</text>
	<text fill="#000000" font-family="Times-Bold" font-size="20" font-style="italic" x="1056" xml:space="preserve" y="1999.32">1NF_25A
	</text>
	<text fill="#000000" font-family="Times-Bold" font-size="20" font-style="italic" x="1177" xml:space="preserve" y="2020.32">1NF_26A
	</text>
	<line stroke="black" stroke-width="1" x1="30" x2="60" y1="1029" y2="1029" />
	<line stroke="black" stroke-width="1" x1="1103" x2="573" y1="44" y2="44" />
	<line stroke="black" stroke-width="1" x1="1104" x2="573" y1="65" y2="65" />
	<line stroke="black" stroke-width="1" x1="573" x2="532" y1="55" y2="55" />
	<line stroke="black" stroke-width="1" x1="1075" x2="532" y1="86" y2="86" />
	<line stroke="black" stroke-width="1" x1="532" x2="337" y1="70" y2="70" />
	<line stroke="black" stroke-width="1" x1="1170" x2="347" y1="107" y2="107" />
	<line stroke="black" stroke-width="1" x1="1155" x2="546" y1="127" y2="127" />
	<line stroke="black" stroke-width="1" x1="1140" x2="631" y1="148" y2="148" />
	<line stroke="black" stroke-width="1" x1="1129" x2="631" y1="169" y2="169" />
	<line stroke="black" stroke-width="1" x1="631" x2="546" y1="158" y2="158" />
	<line stroke="black" stroke-width="1" x1="546" x2="347" y1="143" y2="143" />
	<line stroke="black" stroke-width="1" x1="347" x2="337" y1="125" y2="125" />
	<line stroke="black" stroke-width="1" x1="337" x2="146" y1="97" y2="97" />
	<line stroke="black" stroke-width="1" x1="1097" x2="358" y1="190" y2="190" />
	<line stroke="black" stroke-width="1" x1="1122" x2="358" y1="210" y2="210" />
	<line stroke="black" stroke-width="1" x1="358" x2="308" y1="200" y2="200" />
	<line stroke="black" stroke-width="1" x1="1123" x2="308" y1="231" y2="231" />
	<line stroke="black" stroke-width="1" x1="308" x2="154" y1="216" y2="216" />
	<line stroke="black" stroke-width="1" x1="1135" x2="154" y1="252" y2="252" />
	<line stroke="black" stroke-width="1" x1="154" x2="146" y1="234" y2="234" />
	<line stroke="black" stroke-width="1" x1="146" x2="131" y1="166" y2="166" />
	<line stroke="black" stroke-width="1" x1="1057" x2="723" y1="273" y2="273" />
	<line stroke="black" stroke-width="1" x1="1110" x2="723" y1="293" y2="293" />
	<line stroke="black" stroke-width="1" x1="723" x2="567" y1="283" y2="283" />
	<line stroke="black" stroke-width="1" x1="1157" x2="733" y1="314" y2="314" />
	<line stroke="black" stroke-width="1" x1="1169" x2="733" y1="335" y2="335" />
	<line stroke="black" stroke-width="1" x1="733" x2="567" y1="324" y2="324" />
	<line stroke="black" stroke-width="1" x1="567" x2="503" y1="304" y2="304" />
	<line stroke="black" stroke-width="1" x1="1059" x2="639" y1="356" y2="356" />
	<line stroke="black" stroke-width="1" x1="1138" x2="794" y1="376" y2="376" />
	<line stroke="black" stroke-width="1" x1="1094" x2="794" y1="397" y2="397" />
	<line stroke="black" stroke-width="1" x1="794" x2="639" y1="387" y2="387" />
	<line stroke="black" stroke-width="1" x1="639" x2="545" y1="371" y2="371" />
	<line stroke="black" stroke-width="1" x1="1118" x2="566" y1="418" y2="418" />
	<line stroke="black" stroke-width="1" x1="1086" x2="566" y1="439" y2="439" />
	<line stroke="black" stroke-width="1" x1="566" x2="545" y1="428" y2="428" />
	<line stroke="black" stroke-width="1" x1="545" x2="503" y1="400" y2="400" />
	<line stroke="black" stroke-width="1" x1="503" x2="491" y1="352" y2="352" />
	<line stroke="black" stroke-width="1" x1="1084" x2="647" y1="459" y2="459" />
	<line stroke="black" stroke-width="1" x1="1125" x2="647" y1="480" y2="480" />
	<line stroke="black" stroke-width="1" x1="647" x2="584" y1="470" y2="470" />
	<line stroke="black" stroke-width="1" x1="1087" x2="584" y1="501" y2="501" />
	<line stroke="black" stroke-width="1" x1="584" x2="574" y1="485" y2="485" />
	<line stroke="black" stroke-width="1" x1="1049" x2="574" y1="522" y2="522" />
	<line stroke="black" stroke-width="1" x1="574" x2="491" y1="503" y2="503" />
	<line stroke="black" stroke-width="1" x1="491" x2="131" y1="428" y2="428" />
	<line stroke="black" stroke-width="1" x1="131" x2="67" y1="297" y2="297" />
	<line stroke="black" stroke-width="1" x1="1024" x2="67" y1="542" y2="542" />
	<line stroke="black" stroke-width="1" x1="67" x2="60" y1="419" y2="419" />
	<line stroke="black" stroke-width="1" x1="948" x2="171" y1="563" y2="563" />
	<line stroke="black" stroke-width="1" x1="988" x2="171" y1="584" y2="584" />
	<line stroke="black" stroke-width="1" x1="171" x2="142" y1="573" y2="573" />
	<line stroke="black" stroke-width="1" x1="1015" x2="155" y1="605" y2="605" />
	<line stroke="black" stroke-width="1" x1="1088" x2="636" y1="625" y2="625" />
	<line stroke="black" stroke-width="1" x1="1132" x2="636" y1="646" y2="646" />
	<line stroke="black" stroke-width="1" x1="636" x2="599" y1="636" y2="636" />
	<line stroke="black" stroke-width="1" x1="1113" x2="599" y1="667" y2="667" />
	<line stroke="black" stroke-width="1" x1="599" x2="341" y1="651" y2="651" />
	<line stroke="black" stroke-width="1" x1="1050" x2="619" y1="688" y2="688" />
	<line stroke="black" stroke-width="1" x1="1064" x2="619" y1="708" y2="708" />
	<line stroke="black" stroke-width="1" x1="619" x2="341" y1="698" y2="698" />
	<line stroke="black" stroke-width="1" x1="341" x2="278" y1="675" y2="675" />
	<line stroke="black" stroke-width="1" x1="1121" x2="660" y1="729" y2="729" />
	<line stroke="black" stroke-width="1" x1="1061" x2="660" y1="750" y2="750" />
	<line stroke="black" stroke-width="1" x1="660" x2="278" y1="739" y2="739" />
	<line stroke="black" stroke-width="1" x1="278" x2="179" y1="707" y2="707" />
	<line stroke="black" stroke-width="1" x1="1054" x2="179" y1="771" y2="771" />
	<line stroke="black" stroke-width="1" x1="179" x2="155" y1="739" y2="739" />
	<line stroke="black" stroke-width="1" x1="155" x2="148" y1="672" y2="672" />
	<line stroke="black" stroke-width="1" x1="1097" x2="164" y1="791" y2="791" />
	<line stroke="black" stroke-width="1" x1="1103" x2="164" y1="812" y2="812" />
	<line stroke="black" stroke-width="1" x1="164" x2="148" y1="802" y2="802" />
	<line stroke="black" stroke-width="1" x1="148" x2="142" y1="737" y2="737" />
	<line stroke="black" stroke-width="1" x1="142" x2="134" y1="655" y2="655" />
	<line stroke="black" stroke-width="1" x1="996" x2="157" y1="833" y2="833" />
	<line stroke="black" stroke-width="1" x1="1020" x2="157" y1="854" y2="854" />
	<line stroke="black" stroke-width="1" x1="157" x2="145" y1="843" y2="843" />
	<line stroke="black" stroke-width="1" x1="1014" x2="196" y1="874" y2="874" />
	<line stroke="black" stroke-width="1" x1="1002" x2="196" y1="895" y2="895" />
	<line stroke="black" stroke-width="1" x1="196" x2="145" y1="885" y2="885" />
	<line stroke="black" stroke-width="1" x1="145" x2="134" y1="864" y2="864" />
	<line stroke="black" stroke-width="1" x1="134" x2="132" y1="760" y2="760" />
	<line stroke="black" stroke-width="1" x1="995" x2="179" y1="916" y2="916" />
	<line stroke="black" stroke-width="1" x1="1001" x2="179" y1="937" y2="937" />
	<line stroke="black" stroke-width="1" x1="179" x2="150" y1="926" y2="926" />
	<line stroke="black" stroke-width="1" x1="1001" x2="163" y1="957" y2="957" />
	<line stroke="black" stroke-width="1" x1="1011" x2="163" y1="978" y2="978" />
	<line stroke="black" stroke-width="1" x1="163" x2="150" y1="968" y2="968" />
	<line stroke="black" stroke-width="1" x1="150" x2="134" y1="947" y2="947" />
	<line stroke="black" stroke-width="1" x1="1009" x2="162" y1="999" y2="999" />
	<line stroke="black" stroke-width="1" x1="981" x2="162" y1="1020" y2="1020" />
	<line stroke="black" stroke-width="1" x1="162" x2="138" y1="1009" y2="1009" />
	<line stroke="black" stroke-width="1" x1="1041" x2="242" y1="1040" y2="1040" />
	<line stroke="black" stroke-width="1" x1="1016" x2="242" y1="1061" y2="1061" />
	<line stroke="black" stroke-width="1" x1="242" x2="138" y1="1051" y2="1051" />
	<line stroke="black" stroke-width="1" x1="138" x2="134" y1="1030" y2="1030" />
	<line stroke="black" stroke-width="1" x1="134" x2="132" y1="988" y2="988" />
	<line stroke="black" stroke-width="1" x1="132" x2="129" y1="874" y2="874" />
	<line stroke="black" stroke-width="1" x1="971" x2="162" y1="1082" y2="1082" />
	<line stroke="black" stroke-width="1" x1="1010" x2="162" y1="1103" y2="1103" />
	<line stroke="black" stroke-width="1" x1="162" x2="141" y1="1092" y2="1092" />
	<line stroke="black" stroke-width="1" x1="994" x2="464" y1="1123" y2="1123" />
	<line stroke="black" stroke-width="1" x1="1049" x2="464" y1="1144" y2="1144" />
	<line stroke="black" stroke-width="1" x1="464" x2="284" y1="1134" y2="1134" />
	<line stroke="black" stroke-width="1" x1="986" x2="284" y1="1165" y2="1165" />
	<line stroke="black" stroke-width="1" x1="284" x2="155" y1="1149" y2="1149" />
	<line stroke="black" stroke-width="1" x1="998" x2="155" y1="1186" y2="1186" />
	<line stroke="black" stroke-width="1" x1="155" x2="150" y1="1167" y2="1167" />
	<line stroke="black" stroke-width="1" x1="1040" x2="150" y1="1206" y2="1206" />
	<line stroke="black" stroke-width="1" x1="150" x2="141" y1="1187" y2="1187" />
	<line stroke="black" stroke-width="1" x1="141" x2="129" y1="1140" y2="1140" />
	<line stroke="black" stroke-width="1" x1="129" x2="127" y1="1007" y2="1007" />
	<line stroke="black" stroke-width="1" x1="986" x2="163" y1="1227" y2="1227" />
	<line stroke="black" stroke-width="1" x1="1007" x2="163" y1="1248" y2="1248" />
	<line stroke="black" stroke-width="1" x1="163" x2="137" y1="1238" y2="1238" />
	<line stroke="black" stroke-width="1" x1="1012" x2="172" y1="1269" y2="1269" />
	<line stroke="black" stroke-width="1" x1="1024" x2="172" y1="1289" y2="1289" />
	<line stroke="black" stroke-width="1" x1="172" x2="137" y1="1279" y2="1279" />
	<line stroke="black" stroke-width="1" x1="137" x2="127" y1="1258" y2="1258" />
	<line stroke="black" stroke-width="1" x1="127" x2="121" y1="1133" y2="1133" />
	<line stroke="black" stroke-width="1" x1="1011" x2="309" y1="1310" y2="1310" />
	<line stroke="black" stroke-width="1" x1="1084" x2="683" y1="1331" y2="1331" />
	<line stroke="black" stroke-width="1" x1="1001" x2="683" y1="1352" y2="1352" />
	<line stroke="black" stroke-width="1" x1="683" x2="586" y1="1341" y2="1341" />
	<line stroke="black" stroke-width="1" x1="1023" x2="586" y1="1372" y2="1372" />
	<line stroke="black" stroke-width="1" x1="586" x2="309" y1="1357" y2="1357" />
	<line stroke="black" stroke-width="1" x1="309" x2="294" y1="1333" y2="1333" />
	<line stroke="black" stroke-width="1" x1="959" x2="560" y1="1393" y2="1393" />
	<line stroke="black" stroke-width="1" x1="1044" x2="560" y1="1414" y2="1414" />
	<line stroke="black" stroke-width="1" x1="560" x2="294" y1="1404" y2="1404" />
	<line stroke="black" stroke-width="1" x1="294" x2="276" y1="1369" y2="1369" />
	<line stroke="black" stroke-width="1" x1="1057" x2="680" y1="1435" y2="1435" />
	<line stroke="black" stroke-width="1" x1="1055" x2="680" y1="1455" y2="1455" />
	<line stroke="black" stroke-width="1" x1="680" x2="631" y1="1445" y2="1445" />
	<line stroke="black" stroke-width="1" x1="1039" x2="631" y1="1476" y2="1476" />
	<line stroke="black" stroke-width="1" x1="631" x2="526" y1="1461" y2="1461" />
	<line stroke="black" stroke-width="1" x1="1040" x2="526" y1="1497" y2="1497" />
	<line stroke="black" stroke-width="1" x1="526" x2="482" y1="1479" y2="1479" />
	<line stroke="black" stroke-width="1" x1="1030" x2="482" y1="1518" y2="1518" />
	<line stroke="black" stroke-width="1" x1="482" x2="276" y1="1498" y2="1498" />
	<line stroke="black" stroke-width="1" x1="276" x2="271" y1="1433" y2="1433" />
	<line stroke="black" stroke-width="1" x1="970" x2="289" y1="1538" y2="1538" />
	<line stroke="black" stroke-width="1" x1="1081" x2="289" y1="1559" y2="1559" />
	<line stroke="black" stroke-width="1" x1="289" x2="271" y1="1549" y2="1549" />
	<line stroke="black" stroke-width="1" x1="271" x2="121" y1="1491" y2="1491" />
	<line stroke="black" stroke-width="1" x1="121" x2="112" y1="1312" y2="1312" />
	<line stroke="black" stroke-width="1" x1="1110" x2="145" y1="1580" y2="1580" />
	<line stroke="black" stroke-width="1" x1="997" x2="145" y1="1601" y2="1601" />
	<line stroke="black" stroke-width="1" x1="145" x2="118" y1="1590" y2="1590" />
	<line stroke="black" stroke-width="1" x1="979" x2="302" y1="1621" y2="1621" />
	<line stroke="black" stroke-width="1" x1="1054" x2="302" y1="1642" y2="1642" />
	<line stroke="black" stroke-width="1" x1="302" x2="118" y1="1632" y2="1632" />
	<line stroke="black" stroke-width="1" x1="118" x2="112" y1="1611" y2="1611" />
	<line stroke="black" stroke-width="1" x1="112" x2="90" y1="1461" y2="1461" />
	<line stroke="black" stroke-width="1" x1="1057" x2="390" y1="1663" y2="1663" />
	<line stroke="black" stroke-width="1" x1="1093" x2="390" y1="1684" y2="1684" />
	<line stroke="black" stroke-width="1" x1="390" x2="301" y1="1673" y2="1673" />
	<line stroke="black" stroke-width="1" x1="1111" x2="463" y1="1704" y2="1704" />
	<line stroke="black" stroke-width="1" x1="1086" x2="577" y1="1725" y2="1725" />
	<line stroke="black" stroke-width="1" x1="1122" x2="681" y1="1746" y2="1746" />
	<line stroke="black" stroke-width="1" x1="1034" x2="681" y1="1767" y2="1767" />
	<line stroke="black" stroke-width="1" x1="681" x2="577" y1="1756" y2="1756" />
	<line stroke="black" stroke-width="1" x1="577" x2="553" y1="1741" y2="1741" />
	<line stroke="black" stroke-width="1" x1="1095" x2="553" y1="1787" y2="1787" />
	<line stroke="black" stroke-width="1" x1="553" x2="463" y1="1764" y2="1764" />
	<line stroke="black" stroke-width="1" x1="463" x2="301" y1="1734" y2="1734" />
	<line stroke="black" stroke-width="1" x1="301" x2="110" y1="1704" y2="1704" />
	<line stroke="black" stroke-width="1" x1="1090" x2="361" y1="1808" y2="1808" />
	<line stroke="black" stroke-width="1" x1="1043" x2="361" y1="1829" y2="1829" />
	<line stroke="black" stroke-width="1" x1="361" x2="277" y1="1819" y2="1819" />
	<line stroke="black" stroke-width="1" x1="1082" x2="277" y1="1850" y2="1850" />
	<line stroke="black" stroke-width="1" x1="277" x2="126" y1="1834" y2="1834" />
	<line stroke="black" stroke-width="1" x1="976" x2="460" y1="1870" y2="1870" />
	<line stroke="black" stroke-width="1" x1="1023" x2="609" y1="1891" y2="1891" />
	<line stroke="black" stroke-width="1" x1="1078" x2="609" y1="1912" y2="1912" />
	<line stroke="black" stroke-width="1" x1="609" x2="460" y1="1902" y2="1902" />
	<line stroke="black" stroke-width="1" x1="460" x2="126" y1="1886" y2="1886" />
	<line stroke="black" stroke-width="1" x1="126" x2="116" y1="1860" y2="1860" />
	<line stroke="black" stroke-width="1" x1="994" x2="499" y1="1933" y2="1933" />
	<line stroke="black" stroke-width="1" x1="987" x2="499" y1="1953" y2="1953" />
	<line stroke="black" stroke-width="1" x1="499" x2="312" y1="1943" y2="1943" />
	<line stroke="black" stroke-width="1" x1="1111" x2="355" y1="1974" y2="1974" />
	<line stroke="black" stroke-width="1" x1="1049" x2="355" y1="1995" y2="1995" />
	<line stroke="black" stroke-width="1" x1="355" x2="312" y1="1985" y2="1985" />
	<line stroke="black" stroke-width="1" x1="312" x2="289" y1="1964" y2="1964" />
	<line stroke="black" stroke-width="1" x1="1170" x2="289" y1="2016" y2="2016" />
	<line stroke="black" stroke-width="1" x1="289" x2="116" y1="1990" y2="1990" />
	<line stroke="black" stroke-width="1" x1="116" x2="110" y1="1925" y2="1925" />
	<line stroke="black" stroke-width="1" x1="110" x2="90" y1="1814" y2="1814" />
	<line stroke="black" stroke-width="1" x1="90" x2="60" y1="1638" y2="1638" />
	<line stroke="black" stroke-width="1" x1="573" x2="573" y1="44" y2="65" />
	<line stroke="black" stroke-width="1" x1="532" x2="532" y1="55" y2="86" />
	<line stroke="black" stroke-width="1" x1="631" x2="631" y1="148" y2="169" />
	<line stroke="black" stroke-width="1" x1="546" x2="546" y1="127" y2="158" />
	<line stroke="black" stroke-width="1" x1="347" x2="347" y1="107" y2="143" />
	<line stroke="black" stroke-width="1" x1="337" x2="337" y1="70" y2="125" />
	<line stroke="black" stroke-width="1" x1="358" x2="358" y1="190" y2="210" />
	<line stroke="black" stroke-width="1" x1="308" x2="308" y1="200" y2="231" />
	<line stroke="black" stroke-width="1" x1="154" x2="154" y1="216" y2="252" />
	<line stroke="black" stroke-width="1" x1="146" x2="146" y1="97" y2="234" />
	<line stroke="black" stroke-width="1" x1="723" x2="723" y1="273" y2="293" />
	<line stroke="black" stroke-width="1" x1="733" x2="733" y1="314" y2="335" />
	<line stroke="black" stroke-width="1" x1="567" x2="567" y1="283" y2="324" />
	<line stroke="black" stroke-width="1" x1="794" x2="794" y1="376" y2="397" />
	<line stroke="black" stroke-width="1" x1="639" x2="639" y1="356" y2="387" />
	<line stroke="black" stroke-width="1" x1="566" x2="566" y1="418" y2="439" />
	<line stroke="black" stroke-width="1" x1="545" x2="545" y1="371" y2="428" />
	<line stroke="black" stroke-width="1" x1="503" x2="503" y1="304" y2="400" />
	<line stroke="black" stroke-width="1" x1="647" x2="647" y1="459" y2="480" />
	<line stroke="black" stroke-width="1" x1="584" x2="584" y1="470" y2="501" />
	<line stroke="black" stroke-width="1" x1="574" x2="574" y1="485" y2="522" />
	<line stroke="black" stroke-width="1" x1="491" x2="491" y1="352" y2="503" />
	<line stroke="black" stroke-width="1" x1="131" x2="131" y1="166" y2="428" />
	<line stroke="black" stroke-width="1" x1="67" x2="67" y1="297" y2="542" />
	<line stroke="black" stroke-width="1" x1="171" x2="171" y1="563" y2="584" />
	<line stroke="black" stroke-width="1" x1="636" x2="636" y1="625" y2="646" />
	<line stroke="black" stroke-width="1" x1="599" x2="599" y1="636" y2="667" />
	<line stroke="black" stroke-width="1" x1="619" x2="619" y1="688" y2="708" />
	<line stroke="black" stroke-width="1" x1="341" x2="341" y1="651" y2="698" />
	<line stroke="black" stroke-width="1" x1="660" x2="660" y1="729" y2="750" />
	<line stroke="black" stroke-width="1" x1="278" x2="278" y1="675" y2="739" />
	<line stroke="black" stroke-width="1" x1="179" x2="179" y1="707" y2="771" />
	<line stroke="black" stroke-width="1" x1="155" x2="155" y1="605" y2="739" />
	<line stroke="black" stroke-width="1" x1="164" x2="164" y1="791" y2="812" />
	<line stroke="black" stroke-width="1" x1="148" x2="148" y1="672" y2="802" />
	<line stroke="black" stroke-width="1" x1="142" x2="142" y1="573" y2="737" />
	<line stroke="black" stroke-width="1" x1="157" x2="157" y1="833" y2="854" />
	<line stroke="black" stroke-width="1" x1="196" x2="196" y1="874" y2="895" />
	<line stroke="black" stroke-width="1" x1="145" x2="145" y1="843" y2="885" />
	<line stroke="black" stroke-width="1" x1="134" x2="134" y1="655" y2="864" />
	<line stroke="black" stroke-width="1" x1="179" x2="179" y1="916" y2="937" />
	<line stroke="black" stroke-width="1" x1="163" x2="163" y1="957" y2="978" />
	<line stroke="black" stroke-width="1" x1="150" x2="150" y1="926" y2="968" />
	<line stroke="black" stroke-width="1" x1="162" x2="162" y1="999" y2="1020" />
	<line stroke="black" stroke-width="1" x1="242" x2="242" y1="1040" y2="1061" />
	<line stroke="black" stroke-width="1" x1="138" x2="138" y1="1009" y2="1051" />
	<line stroke="black" stroke-width="1" x1="134" x2="134" y1="947" y2="1030" />
	<line stroke="black" stroke-width="1" x1="132" x2="132" y1="760" y2="988" />
	<line stroke="black" stroke-width="1" x1="162" x2="162" y1="1082" y2="1103" />
	<line stroke="black" stroke-width="1" x1="464" x2="464" y1="1123" y2="1144" />
	<line stroke="black" stroke-width="1" x1="284" x2="284" y1="1134" y2="1165" />
	<line stroke="black" stroke-width="1" x1="155" x2="155" y1="1149" y2="1186" />
	<line stroke="black" stroke-width="1" x1="150" x2="150" y1="1167" y2="1206" />
	<line stroke="black" stroke-width="1" x1="141" x2="141" y1="1092" y2="1187" />
	<line stroke="black" stroke-width="1" x1="129" x2="129" y1="874" y2="1140" />
	<line stroke="black" stroke-width="1" x1="163" x2="163" y1="1227" y2="1248" />
	<line stroke="black" stroke-width="1" x1="172" x2="172" y1="1269" y2="1289" />
	<line stroke="black" stroke-width="1" x1="137" x2="137" y1="1238" y2="1279" />
	<line stroke="black" stroke-width="1" x1="127" x2="127" y1="1007" y2="1258" />
	<line stroke="black" stroke-width="1" x1="683" x2="683" y1="1331" y2="1352" />
	<line stroke="black" stroke-width="1" x1="586" x2="586" y1="1341" y2="1372" />
	<line stroke="black" stroke-width="1" x1="309" x2="309" y1="1310" y2="1357" />
	<line stroke="black" stroke-width="1" x1="560" x2="560" y1="1393" y2="1414" />
	<line stroke="black" stroke-width="1" x1="294" x2="294" y1="1333" y2="1404" />
	<line stroke="black" stroke-width="1" x1="680" x2="680" y1="1435" y2="1455" />
	<line stroke="black" stroke-width="1" x1="631" x2="631" y1="1445" y2="1476" />
	<line stroke="black" stroke-width="1" x1="526" x2="526" y1="1461" y2="1497" />
	<line stroke="black" stroke-width="1" x1="482" x2="482" y1="1479" y2="1518" />
	<line stroke="black" stroke-width="1" x1="276" x2="276" y1="1369" y2="1498" />
	<line stroke="black" stroke-width="1" x1="289" x2="289" y1="1538" y2="1559" />
	<line stroke="black" stroke-width="1" x1="271" x2="271" y1="1433" y2="1549" />
	<line stroke="black" stroke-width="1" x1="121" x2="121" y1="1133" y2="1491" />
	<line stroke="black" stroke-width="1" x1="145" x2="145" y1="1580" y2="1601" />
	<line stroke="black" stroke-width="1" x1="302" x2="302" y1="1621" y2="1642" />
	<line stroke="black" stroke-width="1" x1="118" x2="118" y1="1590" y2="1632" />
	<line stroke="black" stroke-width="1" x1="112" x2="112" y1="1312" y2="1611" />
	<line stroke="black" stroke-width="1" x1="390" x2="390" y1="1663" y2="1684" />
	<line stroke="black" stroke-width="1" x1="681" x2="681" y1="1746" y2="1767" />
	<line stroke="black" stroke-width="1" x1="577" x2="577" y1="1725" y2="1756" />
	<line stroke="black" stroke-width="1" x1="553" x2="553" y1="1741" y2="1787" />
	<line stroke="black" stroke-width="1" x1="463" x2="463" y1="1704" y2="1764" />
	<line stroke="black" stroke-width="1" x1="301" x2="301" y1="1673" y2="1734" />
	<line stroke="black" stroke-width="1" x1="361" x2="361" y1="1808" y2="1829" />
	<line stroke="black" stroke-width="1" x1="277" x2="277" y1="1819" y2="1850" />
	<line stroke="black" stroke-width="1" x1="609" x2="609" y1="1891" y2="1912" />
	<line stroke="black" stroke-width="1" x1="460" x2="460" y1="1870" y2="1902" />
	<line stroke="black" stroke-width="1" x1="126" x2="126" y1="1834" y2="1886" />
	<line stroke="black" stroke-width="1" x1="499" x2="499" y1="1933" y2="1953" />
	<line stroke="black" stroke-width="1" x1="355" x2="355" y1="1974" y2="1995" />
	<line stroke="black" stroke-width="1" x1="312" x2="312" y1="1943" y2="1985" />
	<line stroke="black" stroke-width="1" x1="289" x2="289" y1="1964" y2="2016" />
	<line stroke="black" stroke-width="1" x1="116" x2="116" y1="1860" y2="1990" />
	<line stroke="black" stroke-width="1" x1="110" x2="110" y1="1704" y2="1925" />
	<line stroke="black" stroke-width="1" x1="90" x2="90" y1="1461" y2="1814" />
	<line stroke="black" stroke-width="1" x1="60" x2="60" y1="419" y2="1638" /><!-- 
	Generated using the Perl SVG Module V2.50
	by Ronan Oger
	Info: http://www.roitsystems.com/
 -->
</svg>
